<?xml version="1.0" encoding="UTF-8"?>
<svg width="200px" height="200px" viewBox="0 0 200 200" version="1.1" xmlns="http://www.w3.org/2000/svg" xmlns:xlink="http://www.w3.org/1999/xlink">
    <title>오프라인 상태</title>
    <defs>
        <linearGradient x1="0%" y1="0%" x2="100%" y2="100%" id="linearGradient">
            <stop stop-color="#4361EE" offset="0%"></stop>
            <stop stop-color="#3A0CA3" offset="100%"></stop>
        </linearGradient>
        <filter id="shadow" x="-50%" y="-50%" width="200%" height="200%">
            <feDropShadow dx="0" dy="4" stdDeviation="4" flood-color="#000000" flood-opacity="0.15"/>
        </filter>
    </defs>
    <g stroke="none" stroke-width="1" fill="none" fill-rule="evenodd">
        <!-- 배경 원 -->
        <circle fill="#F0F2F5" cx="100" cy="100" r="80"></circle>
        
        <!-- 클라우드 -->
        <path d="M70,80 C70,66.7 80.7,56 94,56 C102.1,56 109.3,60.1 113.4,66.4 C115.9,65.5 118.6,65 121.5,65 C134.5,65 145,75.5 145,88.5 C145,101.5 134.5,112 121.5,112 L76,112 C72.1,112 69,108.9 69,105 L69,88.5 C69,84.6 72.1,81.5 76,81.5 L76,80 C76,80 73.3,80 70,80 Z" fill="#FFFFFF" filter="url(#shadow)"></path>
        
        <!-- 연결 끊김 아이콘 -->
        <g transform="translate(60, 100)">
            <!-- 안테나 아이콘 -->
            <path d="M80,0 C93.8,0 105,11.2 105,25 L95,25 C95,16.7 88.3,10 80,10 C71.7,10 65,16.7 65,25 L55,25 C55,11.2 66.2,0 80,0 Z" fill="url(#linearGradient)" opacity="0.4"></path>
            <path d="M80,20 C88.3,20 95,26.7 95,35 L85,35 C85,32.2 82.8,30 80,30 C77.2,30 75,32.2 75,35 L65,35 C65,26.7 71.7,20 80,20 Z" fill="url(#linearGradient)" opacity="0.6"></path>
            <path d="M80,40 C82.8,40 85,42.2 85,45 L75,45 C75,42.2 77.2,40 80,40 Z" fill="url(#linearGradient)" opacity="0.8"></path>
            
            <!-- X 표시 (연결 끊김) -->
            <g transform="translate(40, 25)" stroke="url(#linearGradient)" stroke-width="6" stroke-linecap="round">
                <line x1="0" y1="0" x2="30" y2="30"></line>
                <line x1="30" y1="0" x2="0" y2="30"></line>
            </g>
        </g>
    </g>
</svg>
