<svg xmlns="http://www.w3.org/2000/svg" width="192" height="192" viewBox="0 0 192 192">
  <rect width="192" height="192" fill="#3f51b5" rx="32" ry="32"/>
  <g fill="#ffffff">
    <path d="M48 72c0-13.255 10.745-24 24-24s24 10.745 24 24-10.745 24-24 24S48 85.255 48 72zM96 72c0-13.255 10.745-24 24-24s24 10.745 24 24-10.745 24-24 24-24-10.745-24-24z"/>
    <path d="M48 120c0-13.255 10.745-24 24-24s24 10.745 24 24-10.745 24-24 24S48 133.255 48 120zM96 120c0-13.255 10.745-24 24-24s24 10.745 24 24-10.745 24-24 24-24-10.745-24-24z"/>
    <rect x="73" y="35" width="46" height="6" rx="3" ry="3"/>
    <rect x="73" y="151" width="46" height="6" rx="3" ry="3"/>
    <rect x="35" y="73" width="6" height="46" rx="3" ry="3"/>
    <rect x="151" y="73" width="6" height="46" rx="3" ry="3"/>
  </g>
</svg>
