<svg xmlns="http://www.w3.org/2000/svg" width="512" height="512" viewBox="0 0 512 512">
  <rect width="512" height="512" fill="#3f51b5" rx="64" ry="64"/>
  <g fill="#ffffff">
    <path d="M128 192c0-35.346 28.654-64 64-64s64 28.654 64 64-28.654 64-64 64-64-28.654-64-64zM256 192c0-35.346 28.654-64 64-64s64 28.654 64 64-28.654 64-64 64-64-28.654-64-64z"/>
    <path d="M128 320c0-35.346 28.654-64 64-64s64 28.654 64 64-28.654 64-64 64-64-28.654-64-64zM256 320c0-35.346 28.654-64 64-64s64 28.654 64 64-28.654 64-64 64-64-28.654-64-64z"/>
    <rect x="194" y="94" width="124" height="16" rx="8" ry="8"/>
    <rect x="194" y="402" width="124" height="16" rx="8" ry="8"/>
    <rect x="94" y="194" width="16" height="124" rx="8" ry="8"/>
    <rect x="402" y="194" width="16" height="124" rx="8" ry="8"/>
  </g>
</svg>
