<?xml version="1.0" encoding="UTF-8" standalone="no"?>
<svg xmlns="http://www.w3.org/2000/svg" viewBox="0 0 200 60" width="200" height="60">
  <!-- 시트 아이콘 -->
  <g fill="#4361ee">
    <path d="M30,10 L50,10 C55,10 60,15 60,20 L60,40 C60,45 55,50 50,50 L30,50 C25,50 20,45 20,40 L20,20 C20,15 25,10 30,10 Z" />
    <path d="M25,15 L55,15 L55,30 C55,32 53,34 51,34 L29,34 C27,34 25,32 25,30 L25,15 Z" fill="#ffffff" />
    <path d="M25,38 L55,38 L55,45 L25,45 L25,38 Z" fill="#ffffff" />
    <rect x="30" y="40" width="5" height="10" rx="2" />
    <rect x="45" y="40" width="5" height="10" rx="2" />
  </g>
  
  <!-- 'SEAT TECH' 텍스트 -->
  <text x="70" y="30" font-family="Arial, sans-serif" font-weight="bold" font-size="18" fill="#212529">SEAT TECH</text>
  <text x="70" y="45" font-family="Arial, sans-serif" font-size="12" fill="#495057">CONFERENCE</text>
  
  <!-- 채팅 아이콘 -->
  <g transform="translate(170, 30)">
    <circle cx="0" cy="0" r="15" fill="#4cc9f0" />
    <path d="M-7,-5 L7,-5 C8,-5 9,-4 9,-3 L9,5 C9,6 8,7 7,7 L0,7 L-3,10 L-3,7 L-7,7 C-8,7 -9,6 -9,5 L-9,-3 C-9,-4 -8,-5 -7,-5 Z" fill="#ffffff" />
  </g>
</svg>
